<?xml version="1.0" encoding="UTF-8" standalone="no"?>
<svg
   xmlns:dc="http://purl.org/dc/elements/1.1/"
   xmlns:cc="http://creativecommons.org/ns#"
   xmlns:rdf="http://www.w3.org/1999/02/22-rdf-syntax-ns#"
   xmlns:svg="http://www.w3.org/2000/svg"
   xmlns="http://www.w3.org/2000/svg"
   xmlns:sodipodi="http://sodipodi.sourceforge.net/DTD/sodipodi-0.dtd"
   xmlns:inkscape="http://www.inkscape.org/namespaces/inkscape"
   width="800mm"
   height="800mm"
   viewBox="0 0 800 800"
   version="1.1"
   id="svg8"
   inkscape:version="1.0 (4035a4fb49, 2020-05-01)"
   sodipodi:docname="se_logo.svg">
  <defs
     id="defs2">
    <rect
       x="818.4696"
       y="101.77249"
       width="1748.2843"
       height="622.92859"
       id="rect967" />
    <rect
       x="854.91974"
       y="129.37231"
       width="1110.6229"
       height="591.93988"
       id="rect961" />
    <rect
       x="71.332069"
       y="86.910896"
       width="650.49976"
       height="653.71332"
       id="rect945" />
    <rect
       x="111.10701"
       y="163.00462"
       width="567.03339"
       height="493.6716"
       id="rect939" />
    <rect
       x="58.981079"
       y="112.93589"
       width="687.82104"
       height="633.76385"
       id="rect32" />
    <rect
       x="127.06054"
       y="101.62595"
       width="573.06378"
       height="603.98767"
       id="rect26" />
    <rect
       x="0"
       y="0"
       width="800"
       height="800"
       id="rect20" />
    <rect
       x="121.03211"
       y="154.45715"
       width="564.12891"
       height="550.53857"
       id="rect14" />
  </defs>
  <sodipodi:namedview
     id="base"
     pagecolor="#ffffff"
     bordercolor="#666666"
     borderopacity="1.0"
     inkscape:pageopacity="0.0"
     inkscape:pageshadow="2"
     inkscape:zoom="0.0875"
     inkscape:cx="5037.6693"
     inkscape:cy="560.61018"
     inkscape:document-units="mm"
     inkscape:current-layer="layer1"
     inkscape:document-rotation="0"
     showgrid="false"
     inkscape:window-width="1920"
     inkscape:window-height="1055"
     inkscape:window-x="0"
     inkscape:window-y="25"
     inkscape:window-maximized="1" />
  <metadata
     id="metadata5">
    <rdf:RDF>
      <cc:Work
         rdf:about="">
        <dc:format>image/svg+xml</dc:format>
        <dc:type
           rdf:resource="http://purl.org/dc/dcmitype/StillImage" />
        <dc:title></dc:title>
      </cc:Work>
    </rdf:RDF>
  </metadata>
  <g
     inkscape:label="图层 1"
     inkscape:groupmode="layer"
     id="layer1">
    <rect
       style="fill:#0078b5;fill-opacity:1;fill-rule:evenodd;stroke-width:0.264583"
       id="rect10"
       width="800"
       height="800"
       x="0"
       y="0" />
    <text
       xml:space="preserve"
       id="text12"
       style="font-style:normal;font-weight:normal;font-size:10.5833px;line-height:1.25;font-family:sans-serif;white-space:pre;shape-inside:url(#rect14);fill:#000000;fill-opacity:1;stroke:none;" />
    <text
       xml:space="preserve"
       id="text18"
       style="font-style:normal;font-weight:normal;font-size:10.5833px;line-height:1.25;font-family:sans-serif;white-space:pre;shape-inside:url(#rect20);fill:#000000;fill-opacity:1;stroke:none;" />
    <text
       xml:space="preserve"
       id="text24"
       style="font-style:normal;font-weight:normal;font-size:10.5833px;line-height:1.25;font-family:sans-serif;white-space:pre;shape-inside:url(#rect26);fill:#000000;fill-opacity:1;stroke:none;" />
    <text
       xml:space="preserve"
       id="text30"
       style="font-style:normal;font-weight:normal;font-size:10.5833px;line-height:1.25;font-family:sans-serif;white-space:pre;shape-inside:url(#rect32);fill:#000000;fill-opacity:1;stroke:none;" />
    <text
       xml:space="preserve"
       id="text937"
       style="font-style:normal;font-weight:normal;font-size:10.5833px;line-height:1.25;font-family:sans-serif;white-space:pre;shape-inside:url(#rect939);fill:#000000;fill-opacity:1;stroke:none;" />
    <g
       aria-label="Str. Exp."
       transform="translate(98.177839,9.4132312)"
       id="text943"
       style="font-style:normal;font-weight:normal;font-size:246.944px;line-height:1.25;font-family:sans-serif;white-space:pre;shape-inside:url(#rect945);fill:#000000;fill-opacity:1;stroke:none">
      <path
         d="m 149.11939,302.78918 q -18.76774,0 -35.80688,-5.18582 -16.792191,-5.18583 -26.916895,-14.32276 -4.691936,-3.9511 -4.691936,-10.1247 0,-4.44499 2.46944,-7.40832 2.46944,-3.21027 5.926656,-3.21027 3.457216,0 8.396096,3.21027 21.978019,16.2983 50.129629,16.2983 19.75552,0 30.37412,-7.40832 10.61859,-7.40832 10.61859,-21.23718 0,-10.86554 -9.87776,-16.2983 -9.87776,-5.43277 -31.60883,-10.37165 -20.7433,-4.44499 -34.07828,-10.12471 -13.33497,-5.67971 -20.990237,-15.31052 -7.40832,-9.87776 -7.40832,-24.94135 0,-15.06358 8.149152,-26.66995 8.396095,-11.85331 23.212735,-18.27386 14.81664,-6.66748 33.83133,-6.66748 17.53302,0 32.34966,4.93888 14.81664,4.93888 25.18829,14.56969 4.93888,4.19805 4.93888,10.12471 0,4.19804 -2.71638,7.40832 -2.46944,3.21027 -5.92666,3.21027 -3.21027,0 -8.14915,-3.21027 -11.35942,-8.64304 -21.48413,-12.3472 -9.87776,-3.95111 -23.95357,-3.95111 -19.01468,0 -29.63328,7.90221 -10.61859,7.65526 -10.61859,21.48413 0,11.85331 9.38387,18.02691 9.38388,5.92666 30.12717,10.86554 21.73107,4.93888 35.06605,10.37164 13.58192,5.18583 21.48413,14.5697 8.14915,9.13693 8.14915,23.70662 0,14.81664 -8.3961,26.42301 -8.14915,11.35943 -23.21273,17.77997 -14.81664,6.1736 -34.32522,6.1736 z"
         style="font-style:normal;font-variant:normal;font-weight:600;font-stretch:normal;font-family:Nunito;-inkscape-font-specification:'Nunito Semi-Bold'"
         id="path49" />
      <path
         d="m 301.23636,283.03366 q 5.43277,0.49389 7.65526,2.96333 2.46944,2.22249 2.46944,6.42054 0,4.93888 -3.9511,7.65527 -3.70416,2.46944 -11.11248,1.97555 l -6.66749,-0.49389 q -20.00246,-1.48166 -29.88022,-12.10026 -9.87776,-10.86553 -9.87776,-31.85577 v -58.03184 h -14.81664 q -10.86554,0 -10.86554,-9.63082 0,-4.44499 2.71639,-6.91443 2.96332,-2.71638 8.14915,-2.71638 h 14.81664 v -25.43524 q 0,-5.67971 3.21027,-8.88998 3.45722,-3.21027 9.13693,-3.21027 5.67971,0 9.13693,3.21027 3.45721,3.21027 3.45721,8.88998 v 25.43524 h 24.44746 q 5.18582,0 7.90221,2.71638 2.96332,2.46944 2.96332,6.91443 0,4.69194 -2.96332,7.16138 -2.71639,2.46944 -7.90221,2.46944 h -24.44746 v 59.76045 q 0,11.60636 4.69194,17.03913 4.93888,5.43277 14.81664,6.1736 z"
         style="font-style:normal;font-variant:normal;font-weight:600;font-stretch:normal;font-family:Nunito;-inkscape-font-specification:'Nunito Semi-Bold'"
         id="path51" />
      <path
         d="m 392.60534,177.83552 q 11.85331,-0.74084 11.85331,10.1247 0,5.43277 -2.71638,8.14915 -2.71639,2.71639 -9.38388,3.21027 l -7.40832,0.74084 q -15.55747,1.48166 -23.21273,10.86553 -7.40832,9.38387 -7.40832,22.71885 v 56.55018 q 0,5.92665 -3.45722,8.88998 -3.45721,2.96333 -8.88998,2.96333 -5.43277,0 -9.13693,-2.96333 -3.45722,-2.96333 -3.45722,-8.88998 V 189.68883 q 0,-5.67971 3.45722,-8.64304 3.70416,-3.21027 9.13693,-3.21027 4.93888,0 8.14915,3.21027 3.45722,2.96333 3.45722,8.39609 v 11.85332 q 4.93888,-10.86554 14.32275,-16.54525 9.38387,-5.67971 21.23718,-6.66749 z"
         style="font-style:normal;font-variant:normal;font-weight:600;font-stretch:normal;font-family:Nunito;-inkscape-font-specification:'Nunito Semi-Bold'"
         id="path53" />
      <path
         d="m 431.86925,302.04835 q -6.66749,0 -11.35943,-4.44499 -4.44499,-4.445 -4.44499,-11.35943 0,-6.91443 4.44499,-11.35942 4.69194,-4.69194 11.35943,-4.69194 6.66748,0 11.11248,4.69194 4.44499,4.44499 4.44499,11.35942 0,6.91443 -4.44499,11.35943 -4.445,4.44499 -11.11248,4.44499 z"
         style="font-style:normal;font-variant:normal;font-weight:600;font-stretch:normal;font-family:Nunito;-inkscape-font-specification:'Nunito Semi-Bold';fill:#ffffff"
         id="path55" />
      <path
         d="m 104.17558,612.50693 q -5.926653,0 -9.383869,-3.21028 -3.210272,-3.45721 -3.210272,-9.13692 V 450.75861 q 0,-5.67972 3.210272,-8.88999 3.457216,-3.45721 9.383869,-3.45721 h 90.8754 q 5.67971,0 8.64304,2.71638 3.21027,2.71638 3.21027,7.65526 0,4.93888 -3.21027,7.65527 -2.96333,2.46944 -8.64304,2.46944 h -78.5282 v 54.82157 h 73.58932 q 5.67971,0 8.64304,2.71638 3.21027,2.71638 3.21027,7.65526 0,4.93888 -3.21027,7.65527 -2.96333,2.71638 -8.64304,2.71638 h -73.58932 v 57.53795 h 78.5282 q 11.85331,0 11.85331,10.12471 0,4.93888 -3.21027,7.65526 -2.96333,2.71639 -8.64304,2.71639 z"
         style="font-style:normal;font-variant:normal;font-weight:600;font-stretch:normal;font-family:Nunito;-inkscape-font-specification:'Nunito Semi-Bold';fill:#ffffff"
         id="path57" />
      <path
         d="m 334.57412,593.73918 q 3.70416,3.70416 3.70416,8.64304 0,4.69194 -3.45722,8.14915 -3.21027,3.21028 -7.90221,3.21028 -4.69193,0 -8.64304,-4.19805 l -37.78243,-42.47437 -37.53549,42.47437 q -3.9511,4.19805 -8.64304,4.19805 -4.69193,0 -8.14915,-3.45722 -3.21027,-3.45722 -3.21027,-8.14915 0,-4.69194 3.45721,-8.3961 l 39.01716,-42.96825 -37.0416,-41.23965 q -3.70416,-4.19805 -3.70416,-8.3961 0,-4.69193 3.45721,-7.90221 3.45722,-3.45721 7.90221,-3.45721 4.69194,0 8.64304,4.19805 l 35.80688,40.49881 35.80688,-40.49881 q 3.9511,-4.19805 8.88998,-4.19805 4.445,0 7.90221,3.45721 3.45722,3.21028 3.45722,7.90221 0,4.69194 -3.70416,8.3961 l -37.0416,41.23965 z"
         style="font-style:normal;font-variant:normal;font-weight:600;font-stretch:normal;font-family:Nunito;-inkscape-font-specification:'Nunito Semi-Bold';fill:#ffffff"
         id="path59" />
      <path
         d="m 427.42498,489.03493 q 15.55748,0 27.65773,7.9022 12.3472,7.90221 19.01469,22.22496 6.91443,14.32276 6.91443,33.0905 0,18.5208 -6.66749,32.59661 -6.66748,14.07581 -19.01468,21.73107 -12.10026,7.65526 -27.90468,7.65526 -13.58192,0 -23.95356,-5.67971 -10.37165,-5.92665 -15.80442,-16.79219 v 55.06851 q 0,5.18583 -3.45722,8.14915 -3.21027,3.21028 -8.64304,3.21028 -5.67971,0 -9.38387,-3.21028 -3.45721,-3.21027 -3.45721,-8.64304 V 501.62907 q 0,-5.43277 3.45721,-8.64304 3.45722,-3.45722 9.13693,-3.45722 5.43277,0 8.88998,3.45722 3.45722,3.21027 3.45722,8.64304 v 10.1247 q 5.43277,-10.86553 15.80442,-16.79219 10.37164,-5.92665 23.95356,-5.92665 z m -5.92665,105.44508 q 16.2983,0 25.18829,-10.86553 8.88998,-11.11248 8.88998,-31.36189 0,-20.49635 -9.13693,-31.85578 -8.88998,-11.35942 -24.94134,-11.35942 -16.29831,0 -25.18829,11.11248 -8.64304,11.11248 -8.64304,31.60883 0,20.49635 8.64304,31.60883 8.88998,11.11248 25.18829,11.11248 z"
         style="font-style:normal;font-variant:normal;font-weight:600;font-stretch:normal;font-family:Nunito;-inkscape-font-specification:'Nunito Semi-Bold';fill:#ffffff"
         id="path61" />
      <path
         d="m 520.7697,613.74165 q -6.66749,0 -11.35943,-4.445 -4.44499,-4.44499 -4.44499,-11.35942 0,-6.91443 4.44499,-11.35942 4.69194,-4.69194 11.35943,-4.69194 6.66749,0 11.11248,4.69194 4.44499,4.44499 4.44499,11.35942 0,6.91443 -4.44499,11.35942 -4.44499,4.445 -11.11248,4.445 z"
         style="font-style:normal;font-variant:normal;font-weight:600;font-stretch:normal;font-family:Nunito;-inkscape-font-specification:'Nunito Semi-Bold'"
         id="path63" />
    </g>
    <text
       xml:space="preserve"
       id="text959"
       style="font-style:normal;font-weight:normal;font-size:10.5833px;line-height:1.25;font-family:sans-serif;white-space:pre;shape-inside:url(#rect961);fill:#000000;fill-opacity:1;stroke:none;" />
  </g>
</svg>
